<?xml version="1.0" encoding="utf-8"?>
<!-- Generator: Adobe Illustrator 15.1.0, SVG Export Plug-In . SVG Version: 6.00 Build 0)  -->
<!DOCTYPE svg PUBLIC "-//W3C//DTD SVG 1.1//EN" "http://www.w3.org/Graphics/SVG/1.1/DTD/svg11.dtd">
<svg version="1.1" id="Layer_1" xmlns="http://www.w3.org/2000/svg" xmlns:xlink="http://www.w3.org/1999/xlink" x="0px" y="0px"
	 width="512px" height="512px" viewBox="0 0 512 512" enable-background="new 0 0 512 512" xml:space="preserve">
<path fill="#FFFFFF" d="M459.68,144.636l-46.319-46.32c-5.482-5.482-14.371-5.482-19.853,0L200.557,291.268l-82.066-82.064
	c-5.48-5.482-14.37-5.482-19.851,0l-46.319,46.32c-5.482,5.481-5.482,14.37,0,19.851l138.311,138.31
	c2.741,2.742,6.334,4.112,9.926,4.112c3.593,0,7.186-1.37,9.926-4.112L459.68,164.487c2.634-2.632,4.111-6.203,4.111-9.925
	C463.791,150.838,462.313,147.268,459.68,144.636z"/>
</svg>
